<svg xmlns="http://www.w3.org/2000/svg" viewBox="0 0 600 450" width="600" height="450">
  <defs>
    <!-- Warm overhead light -->
    <radialGradient id="overheadLight" cx="50%" cy="45%" r="60%">
      <stop offset="0%" stop-color="#fff8e0" stop-opacity="0.75"/>
      <stop offset="55%" stop-color="#f5d070" stop-opacity="0.2"/>
      <stop offset="100%" stop-color="#c8751a" stop-opacity="0"/>
    </radialGradient>

    <!-- Rattan base -->
    <linearGradient id="rattanBase" x1="0" y1="0" x2="1" y2="1">
      <stop offset="0%" stop-color="#d4884a"/>
      <stop offset="50%" stop-color="#c8751a"/>
      <stop offset="100%" stop-color="#a85e10"/>
    </linearGradient>

    <!-- Chest interior glow -->
    <radialGradient id="chestGlow" cx="50%" cy="40%" r="60%">
      <stop offset="0%" stop-color="#fff8b0"/>
      <stop offset="40%" stop-color="#f59e0b"/>
      <stop offset="100%" stop-color="#d97706" stop-opacity="0.3"/>
    </radialGradient>

    <!-- Pot terracotta gradient -->
    <linearGradient id="terracottaGrad" x1="0" y1="0" x2="1" y2="1">
      <stop offset="0%" stop-color="#c87040"/>
      <stop offset="100%" stop-color="#9a4a20"/>
    </linearGradient>

    <!-- Compass brass gradient -->
    <radialGradient id="compassGrad" cx="40%" cy="35%" r="65%">
      <stop offset="0%" stop-color="#e0c060"/>
      <stop offset="60%" stop-color="#c8a030"/>
      <stop offset="100%" stop-color="#9a7818"/>
    </radialGradient>

    <!-- Compass needle -->
    <linearGradient id="needleNorth" x1="0" y1="1" x2="0" y2="0">
      <stop offset="0%" stop-color="#d02020"/>
      <stop offset="100%" stop-color="#f04040"/>
    </linearGradient>
    <linearGradient id="needleSouth" x1="0" y1="0" x2="0" y2="1">
      <stop offset="0%" stop-color="#e0e0e0"/>
      <stop offset="100%" stop-color="#909090"/>
    </linearGradient>

    <!-- Rope gradient -->
    <linearGradient id="ropeGrad" x1="0" y1="0" x2="1" y2="0">
      <stop offset="0%" stop-color="#c8a050"/>
      <stop offset="50%" stop-color="#d4b060"/>
      <stop offset="100%" stop-color="#b89040"/>
    </linearGradient>

    <!-- Shield leaf gradient -->
    <linearGradient id="leafGrad" x1="0" y1="0" x2="0" y2="1">
      <stop offset="0%" stop-color="#4a7c35"/>
      <stop offset="100%" stop-color="#1a3d1a"/>
    </linearGradient>

    <!-- Drop shadow filters -->
    <filter id="dropShadow" x="-20%" y="-20%" width="140%" height="150%">
      <feDropShadow dx="3" dy="5" stdDeviation="6" flood-color="#6b3a08" flood-opacity="0.45"/>
    </filter>
    <filter id="lightShadow" x="-15%" y="-15%" width="130%" height="140%">
      <feDropShadow dx="2" dy="3" stdDeviation="4" flood-color="#6b3a08" flood-opacity="0.35"/>
    </filter>
    <filter id="chestGlowFilter" x="-30%" y="-50%" width="160%" height="200%">
      <feDropShadow dx="0" dy="0" stdDeviation="10" flood-color="#f59e0b" flood-opacity="0.65"/>
    </filter>
    <filter id="compassGlowFilter" x="-20%" y="-20%" width="140%" height="140%">
      <feDropShadow dx="0" dy="2" stdDeviation="5" flood-color="#c8a030" flood-opacity="0.5"/>
    </filter>
    <filter id="softBlur">
      <feGaussianBlur stdDeviation="2.5"/>
    </filter>
  </defs>

  <!-- ============ RATTAN BACKGROUND ============ -->
  <!-- Base rattan color -->
  <rect x="0" y="0" width="600" height="450" fill="url(#rattanBase)"/>

  <!-- Rattan weave pattern - diagonal grid creating diamond/basket weave -->
  <!-- NE diagonal strands (going from bottom-left to top-right) -->
  <g stroke="#b06010" stroke-width="2.5" opacity="0.45" fill="none">
    <line x1="-40" y1="450" x2="450" y2="-40"/>
    <line x1="-10" y1="450" x2="480" y2="-40"/>
    <line x1="20" y1="450" x2="510" y2="-40"/>
    <line x1="50" y1="450" x2="540" y2="-40"/>
    <line x1="80" y1="450" x2="570" y2="-40"/>
    <line x1="110" y1="450" x2="600" y2="-40"/>
    <line x1="140" y1="450" x2="630" y2="-40"/>
    <line x1="170" y1="450" x2="660" y2="-40"/>
    <line x1="200" y1="450" x2="690" y2="-40"/>
    <line x1="230" y1="450" x2="720" y2="-40"/>
    <line x1="260" y1="450" x2="750" y2="-40"/>
    <line x1="290" y1="450" x2="780" y2="-40"/>
    <line x1="320" y1="450" x2="810" y2="-40"/>
    <line x1="350" y1="450" x2="840" y2="-40"/>
    <line x1="380" y1="450" x2="870" y2="-40"/>
    <line x1="410" y1="450" x2="900" y2="-40"/>
    <line x1="440" y1="450" x2="930" y2="-40"/>
    <line x1="470" y1="450" x2="960" y2="-40"/>
    <line x1="500" y1="450" x2="990" y2="-40"/>
    <line x1="530" y1="450" x2="1020" y2="-40"/>
    <line x1="560" y1="450" x2="1050" y2="-40"/>
  </g>

  <!-- NW diagonal strands (going from top-left to bottom-right) -->
  <g stroke="#b06010" stroke-width="2.5" opacity="0.45" fill="none">
    <line x1="640" y1="450" x2="150" y2="-40"/>
    <line x1="610" y1="450" x2="120" y2="-40"/>
    <line x1="580" y1="450" x2="90" y2="-40"/>
    <line x1="550" y1="450" x2="60" y2="-40"/>
    <line x1="520" y1="450" x2="30" y2="-40"/>
    <line x1="490" y1="450" x2="0" y2="-40"/>
    <line x1="460" y1="450" x2="-30" y2="-40"/>
    <line x1="430" y1="450" x2="-60" y2="-40"/>
    <line x1="400" y1="450" x2="-90" y2="-40"/>
    <line x1="370" y1="450" x2="-120" y2="-40"/>
    <line x1="340" y1="450" x2="-150" y2="-40"/>
    <line x1="310" y1="450" x2="-180" y2="-40"/>
    <line x1="280" y1="450" x2="-210" y2="-40"/>
    <line x1="250" y1="450" x2="-240" y2="-40"/>
    <line x1="220" y1="450" x2="-270" y2="-40"/>
    <line x1="190" y1="450" x2="-300" y2="-40"/>
    <line x1="160" y1="450" x2="-330" y2="-40"/>
    <line x1="130" y1="450" x2="-360" y2="-40"/>
    <line x1="100" y1="450" x2="-390" y2="-40"/>
    <line x1="70" y1="450" x2="-420" y2="-40"/>
    <line x1="40" y1="450" x2="-450" y2="-40"/>
  </g>

  <!-- Weave intersection dots (over-under illusion) -->
  <g fill="#a85510" opacity="0.3">
    <!-- Row 1 -->
    <circle cx="60" cy="30" r="3.5"/>
    <circle cx="90" cy="60" r="3.5"/>
    <circle cx="120" cy="30" r="3.5"/>
    <circle cx="150" cy="60" r="3.5"/>
    <circle cx="180" cy="30" r="3.5"/>
    <circle cx="210" cy="60" r="3.5"/>
    <circle cx="240" cy="30" r="3.5"/>
    <circle cx="270" cy="60" r="3.5"/>
    <circle cx="300" cy="30" r="3.5"/>
    <circle cx="330" cy="60" r="3.5"/>
    <circle cx="360" cy="30" r="3.5"/>
    <circle cx="390" cy="60" r="3.5"/>
    <circle cx="420" cy="30" r="3.5"/>
    <circle cx="450" cy="60" r="3.5"/>
    <circle cx="480" cy="30" r="3.5"/>
    <circle cx="510" cy="60" r="3.5"/>
    <circle cx="540" cy="30" r="3.5"/>
    <circle cx="570" cy="60" r="3.5"/>
    <!-- Row 2 -->
    <circle cx="30" cy="90" r="3.5"/>
    <circle cx="60" cy="120" r="3.5"/>
    <circle cx="90" cy="90" r="3.5"/>
    <circle cx="120" cy="120" r="3.5"/>
    <circle cx="150" cy="90" r="3.5"/>
    <circle cx="180" cy="120" r="3.5"/>
    <circle cx="210" cy="90" r="3.5"/>
    <circle cx="240" cy="120" r="3.5"/>
    <circle cx="270" cy="90" r="3.5"/>
    <circle cx="300" cy="120" r="3.5"/>
    <circle cx="330" cy="90" r="3.5"/>
    <circle cx="360" cy="120" r="3.5"/>
    <circle cx="390" cy="90" r="3.5"/>
    <circle cx="420" cy="120" r="3.5"/>
    <circle cx="450" cy="90" r="3.5"/>
    <circle cx="480" cy="120" r="3.5"/>
    <circle cx="510" cy="90" r="3.5"/>
    <circle cx="540" cy="120" r="3.5"/>
    <circle cx="570" cy="90" r="3.5"/>
    <!-- Row 3 -->
    <circle cx="30" cy="150" r="3.5"/>
    <circle cx="60" cy="180" r="3.5"/>
    <circle cx="90" cy="150" r="3.5"/>
    <circle cx="120" cy="180" r="3.5"/>
    <circle cx="150" cy="150" r="3.5"/>
    <circle cx="180" cy="180" r="3.5"/>
    <circle cx="210" cy="150" r="3.5"/>
    <circle cx="240" cy="180" r="3.5"/>
    <circle cx="270" cy="150" r="3.5"/>
    <circle cx="300" cy="180" r="3.5"/>
    <circle cx="330" cy="150" r="3.5"/>
    <circle cx="360" cy="180" r="3.5"/>
    <circle cx="390" cy="150" r="3.5"/>
    <circle cx="420" cy="180" r="3.5"/>
    <circle cx="450" cy="150" r="3.5"/>
    <circle cx="480" cy="180" r="3.5"/>
    <circle cx="510" cy="150" r="3.5"/>
    <circle cx="540" cy="180" r="3.5"/>
    <circle cx="570" cy="150" r="3.5"/>
    <!-- Row 4 -->
    <circle cx="30" cy="210" r="3.5"/>
    <circle cx="60" cy="240" r="3.5"/>
    <circle cx="90" cy="210" r="3.5"/>
    <circle cx="120" cy="240" r="3.5"/>
    <circle cx="150" cy="210" r="3.5"/>
    <circle cx="180" cy="240" r="3.5"/>
    <circle cx="210" cy="210" r="3.5"/>
    <circle cx="240" cy="240" r="3.5"/>
    <circle cx="270" cy="210" r="3.5"/>
    <circle cx="300" cy="240" r="3.5"/>
    <circle cx="330" cy="210" r="3.5"/>
    <circle cx="360" cy="240" r="3.5"/>
    <circle cx="390" cy="210" r="3.5"/>
    <circle cx="420" cy="240" r="3.5"/>
    <circle cx="450" cy="210" r="3.5"/>
    <circle cx="480" cy="240" r="3.5"/>
    <circle cx="510" cy="210" r="3.5"/>
    <circle cx="540" cy="240" r="3.5"/>
    <circle cx="570" cy="210" r="3.5"/>
    <!-- Row 5 -->
    <circle cx="30" cy="270" r="3.5"/>
    <circle cx="60" cy="300" r="3.5"/>
    <circle cx="90" cy="270" r="3.5"/>
    <circle cx="120" cy="300" r="3.5"/>
    <circle cx="150" cy="270" r="3.5"/>
    <circle cx="180" cy="300" r="3.5"/>
    <circle cx="210" cy="270" r="3.5"/>
    <circle cx="240" cy="300" r="3.5"/>
    <circle cx="270" cy="270" r="3.5"/>
    <circle cx="300" cy="300" r="3.5"/>
    <circle cx="330" cy="270" r="3.5"/>
    <circle cx="360" cy="300" r="3.5"/>
    <circle cx="390" cy="270" r="3.5"/>
    <circle cx="420" cy="300" r="3.5"/>
    <circle cx="450" cy="270" r="3.5"/>
    <circle cx="480" cy="300" r="3.5"/>
    <circle cx="510" cy="270" r="3.5"/>
    <circle cx="540" cy="300" r="3.5"/>
    <circle cx="570" cy="270" r="3.5"/>
    <!-- Row 6 -->
    <circle cx="30" cy="330" r="3.5"/>
    <circle cx="60" cy="360" r="3.5"/>
    <circle cx="90" cy="330" r="3.5"/>
    <circle cx="120" cy="360" r="3.5"/>
    <circle cx="150" cy="330" r="3.5"/>
    <circle cx="180" cy="360" r="3.5"/>
    <circle cx="210" cy="330" r="3.5"/>
    <circle cx="240" cy="360" r="3.5"/>
    <circle cx="270" cy="330" r="3.5"/>
    <circle cx="300" cy="360" r="3.5"/>
    <circle cx="330" cy="330" r="3.5"/>
    <circle cx="360" cy="360" r="3.5"/>
    <circle cx="390" cy="330" r="3.5"/>
    <circle cx="420" cy="360" r="3.5"/>
    <circle cx="450" cy="330" r="3.5"/>
    <circle cx="480" cy="360" r="3.5"/>
    <circle cx="510" cy="330" r="3.5"/>
    <circle cx="540" cy="360" r="3.5"/>
    <circle cx="570" cy="330" r="3.5"/>
    <!-- Row 7 -->
    <circle cx="30" cy="390" r="3.5"/>
    <circle cx="60" cy="420" r="3.5"/>
    <circle cx="90" cy="390" r="3.5"/>
    <circle cx="120" cy="420" r="3.5"/>
    <circle cx="150" cy="390" r="3.5"/>
    <circle cx="180" cy="420" r="3.5"/>
    <circle cx="210" cy="390" r="3.5"/>
    <circle cx="240" cy="420" r="3.5"/>
    <circle cx="270" cy="390" r="3.5"/>
    <circle cx="300" cy="420" r="3.5"/>
    <circle cx="330" cy="390" r="3.5"/>
    <circle cx="360" cy="420" r="3.5"/>
    <circle cx="390" cy="390" r="3.5"/>
    <circle cx="420" cy="420" r="3.5"/>
    <circle cx="450" cy="390" r="3.5"/>
    <circle cx="480" cy="420" r="3.5"/>
    <circle cx="510" cy="390" r="3.5"/>
    <circle cx="540" cy="420" r="3.5"/>
    <circle cx="570" cy="390" r="3.5"/>
  </g>

  <!-- Overhead warm light overlay -->
  <ellipse cx="300" cy="225" rx="320" ry="260" fill="url(#overheadLight)"/>

  <!-- Edge darkening vignette -->
  <rect x="0" y="0" width="600" height="450" fill="none" stroke="#7a3a08" stroke-width="60" opacity="0.4"/>

  <!-- ============ OBJECT SHADOWS (rendered before objects) ============ -->
  <!-- Shield shadow -->
  <ellipse cx="115" cy="175" rx="58" ry="20" fill="#5a3008" opacity="0.3" filter="url(#softBlur)"/>
  <!-- Pot shadow -->
  <ellipse cx="298" cy="180" rx="40" ry="14" fill="#5a3008" opacity="0.28" filter="url(#softBlur)"/>
  <!-- Rope loops shadow -->
  <ellipse cx="148" cy="285" rx="65" ry="18" fill="#5a3008" opacity="0.28" filter="url(#softBlur)"/>
  <!-- Chest shadow -->
  <ellipse cx="405" cy="290" rx="65" ry="20" fill="#5a3008" opacity="0.3" filter="url(#softBlur)"/>
  <!-- Compass shadow -->
  <ellipse cx="295" cy="378" rx="50" ry="16" fill="#5a3008" opacity="0.28" filter="url(#softBlur)"/>

  <!-- ============ 1. LEAF SHIELD (top-left) ============ -->
  <g filter="url(#dropShadow)" transform="translate(60, 55)">
    <!-- Shield outer shape for clipping reference -->
    <!-- Overlapping leaves forming shield/teardrop shape -->
    <!-- Bottom pointed tip -->
    <path d="M55,170 Q48,155 42,138 Q38,120 45,105 Q52,90 55,80 Q57,95 63,110 Q68,128 62,145 Z" fill="#1a3d1a"/>
    <!-- Left leaves -->
    <path d="M55,155 Q38,148 22,135 Q10,120 12,104 Q14,88 28,82 Q40,78 50,90 Q58,102 55,120 Z" fill="#2d5016"/>
    <path d="M55,130 Q35,128 18,118 Q5,106 8,90 Q12,75 28,70 Q42,66 50,80 Q56,93 52,112 Z" fill="#1a3d1a"/>
    <path d="M55,105 Q38,106 22,98 Q8,88 10,72 Q13,58 28,54 Q42,50 50,64 Q56,77 53,92 Z" fill="#2d5016"/>
    <!-- Right leaves -->
    <path d="M55,155 Q72,148 88,135 Q100,120 98,104 Q96,88 82,82 Q70,78 60,90 Q52,102 55,120 Z" fill="#2d5016"/>
    <path d="M55,130 Q75,128 92,118 Q105,106 102,90 Q98,75 82,70 Q68,66 60,80 Q54,93 58,112 Z" fill="#1a3d1a"/>
    <path d="M55,105 Q72,106 88,98 Q102,88 100,72 Q97,58 82,54 Q68,50 60,64 Q54,77 57,92 Z" fill="#2d5016"/>
    <!-- Top leaves -->
    <path d="M55,80 Q45,65 38,48 Q34,32 42,22 Q52,14 62,22 Q68,32 65,48 Q61,65 55,80 Z" fill="#4a7c35"/>
    <path d="M40,72 Q25,62 18,45 Q14,28 24,20 Q34,12 44,22 Q50,34 46,52 Z" fill="#2d5016"/>
    <path d="M70,72 Q85,62 92,45 Q96,28 86,20 Q76,12 66,22 Q60,34 64,52 Z" fill="#2d5016"/>
    <!-- Leaf highlight veins -->
    <path d="M55,170 L55,80" stroke="#4a7c35" stroke-width="1.2" fill="none" opacity="0.45"/>
    <path d="M28,82 L55,120 L82,82" stroke="#3a6828" stroke-width="0.8" fill="none" opacity="0.4"/>
    <!-- Center gem/emblem -->
    <circle cx="55" cy="108" r="10" fill="#f59e0b" opacity="0.85"/>
    <circle cx="55" cy="108" r="7" fill="#e8a020"/>
    <path d="M55,101 L57,106 L63,106 L58,110 L60,116 L55,112 L50,116 L52,110 L47,106 L53,106 Z" fill="#fdf0d5" opacity="0.9"/>
  </g>

  <!-- ============ 2. CERAMIC POT WITH SEEDLING (top-center) ============ -->
  <g filter="url(#lightShadow)" transform="translate(250, 80)">
    <!-- Pot body -->
    <path d="M22,90 Q18,100 16,120 Q14,135 18,145 Q30,155 48,152 Q65,149 68,138 Q70,126 68,112 Q65,98 60,90 Z" fill="url(#terracottaGrad)"/>
    <!-- Pot rim -->
    <ellipse cx="41" cy="90" rx="21" ry="9" fill="#d07848"/>
    <ellipse cx="41" cy="90" rx="21" ry="9" fill="none" stroke="#a85020" stroke-width="2"/>
    <!-- Rim highlight -->
    <path d="M22,87 Q41,82 60,87" stroke="#e0906a" stroke-width="2" fill="none" opacity="0.5"/>
    <!-- Pot base -->
    <ellipse cx="43" cy="150" rx="26" ry="8" fill="#8b4020"/>
    <!-- Pot base highlight -->
    <path d="M20,148 Q42,145 64,148" stroke="#a85020" stroke-width="1" fill="none" opacity="0.4"/>
    <!-- Soil surface -->
    <ellipse cx="41" cy="90" rx="18" ry="7" fill="#2a1408"/>
    <!-- Soil texture -->
    <circle cx="36" cy="89" r="2.5" fill="#1a0a05" opacity="0.6"/>
    <circle cx="46" cy="91" r="2" fill="#1a0a05" opacity="0.5"/>
    <circle cx="41" cy="94" r="1.8" fill="#1a0a05" opacity="0.55"/>
    <!-- Pot shadow line -->
    <path d="M23,92 Q20,120 22,145" stroke="#7a3010" stroke-width="1.5" fill="none" opacity="0.35"/>

    <!-- Seedling stem -->
    <path d="M41,90 Q40,72 41,52" stroke="#4a7c35" stroke-width="3" fill="none" stroke-linecap="round"/>
    <!-- Left leaf -->
    <path d="M41,68 Q28,58 20,48 Q16,42 20,38 Q26,34 32,42 Q38,52 41,65 Z" fill="#5a9040"/>
    <path d="M41,68 L22,44" stroke="#3a6828" stroke-width="1" fill="none" opacity="0.5"/>
    <!-- Right leaf -->
    <path d="M41,65 Q54,55 62,45 Q67,39 63,35 Q57,31 51,39 Q45,49 41,62 Z" fill="#5a9040"/>
    <path d="M41,65 L62,41" stroke="#3a6828" stroke-width="1" fill="none" opacity="0.5"/>
    <!-- Bud tip -->
    <ellipse cx="41" cy="51" rx="5" ry="7" fill="#6aaa50"/>
    <ellipse cx="41" cy="48" rx="3" ry="4" fill="#7abc60"/>
    <!-- Subtle glow around seedling -->
    <ellipse cx="41" cy="68" rx="32" ry="28" fill="#f59e0b" opacity="0.1"/>
  </g>

  <!-- ============ 3. ROPE LOOPS (center-left) ============ -->
  <g filter="url(#lightShadow)" transform="translate(65, 225)">
    <!-- Left rope loop -->
    <g opacity="0.95">
      <!-- Outer ring of left circle -->
      <circle cx="55" cy="55" r="50" fill="none" stroke="#c8a050" stroke-width="14" stroke-linecap="round"/>
      <!-- Braided texture overlay - dashes to suggest braiding -->
      <circle cx="55" cy="55" r="50" fill="none" stroke="#d4b468" stroke-width="5" stroke-dasharray="12 12" stroke-dashoffset="0"/>
      <circle cx="55" cy="55" r="50" fill="none" stroke="#a87828" stroke-width="5" stroke-dasharray="12 12" stroke-dashoffset="6"/>
      <!-- Inner highlight -->
      <circle cx="55" cy="55" r="50" fill="none" stroke="#e8c880" stroke-width="2" opacity="0.5"/>
    </g>

    <!-- Right rope loop (interlinking) - shifted right and slightly overlapping -->
    <g opacity="0.95">
      <circle cx="115" cy="55" r="50" fill="none" stroke="#c8a050" stroke-width="14" stroke-linecap="round"/>
      <!-- Braided texture overlay -->
      <circle cx="115" cy="55" r="50" fill="none" stroke="#d4b468" stroke-width="5" stroke-dasharray="12 12" stroke-dashoffset="6"/>
      <circle cx="115" cy="55" r="50" fill="none" stroke="#a87828" stroke-width="5" stroke-dasharray="12 12" stroke-dashoffset="0"/>
      <!-- Inner highlight -->
      <circle cx="115" cy="55" r="50" fill="none" stroke="#e8c880" stroke-width="2" opacity="0.5"/>
    </g>

    <!-- Interlocking overlay: left over right at bottom intersection -->
    <path d="M76,90 Q84,108 94,90" stroke="#c8a050" stroke-width="14" fill="none"/>
    <path d="M76,90 Q84,108 94,90" stroke="#d4b468" stroke-width="5" fill="none" stroke-dasharray="12 12" stroke-dashoffset="0"/>

    <!-- Rope end knot details left loop -->
    <circle cx="55" cy="5" r="9" fill="#b89040" stroke="#c8a850" stroke-width="2"/>
    <path d="M50,5 Q55,0 60,5" stroke="#d4b060" stroke-width="1.5" fill="none" opacity="0.6"/>
    <!-- Rope end knot right loop -->
    <circle cx="115" cy="5" r="9" fill="#b89040" stroke="#c8a850" stroke-width="2"/>
    <path d="M110,5 Q115,0 120,5" stroke="#d4b060" stroke-width="1.5" fill="none" opacity="0.6"/>

    <!-- Fiber texture lines on rope -->
    <circle cx="55" cy="55" r="44" fill="none" stroke="#9a7020" stroke-width="1.2" stroke-dasharray="4 20" opacity="0.4"/>
    <circle cx="115" cy="55" r="44" fill="none" stroke="#9a7020" stroke-width="1.2" stroke-dasharray="4 20" stroke-dashoffset="12" opacity="0.4"/>
  </g>

  <!-- ============ 4. OPEN TREASURE CHEST (center-right) ============ -->
  <g filter="url(#dropShadow)" transform="translate(340, 200)">
    <!-- Chest base body -->
    <rect x="8" y="55" width="125" height="90" rx="5" fill="#6b4226"/>
    <!-- Chest wood planks front -->
    <rect x="10" y="58" width="121" height="14" rx="2" fill="#8b5e3c"/>
    <rect x="10" y="76" width="121" height="14" rx="2" fill="#7a5030"/>
    <rect x="10" y="94" width="121" height="14" rx="2" fill="#8b5e3c"/>
    <rect x="10" y="112" width="121" height="14" rx="2" fill="#7a5030"/>
    <rect x="10" y="130" width="121" height="13" rx="2" fill="#8b5e3c"/>
    <!-- Corner reinforcements front -->
    <rect x="8" y="55" width="14" height="90" rx="3" fill="#c8a050" opacity="0.7"/>
    <rect x="119" y="55" width="14" height="90" rx="3" fill="#c8a050" opacity="0.7"/>
    <!-- Bottom band -->
    <rect x="8" y="130" width="125" height="18" rx="4" fill="#c8a050" opacity="0.8"/>
    <!-- Center lock clasp (empty - chest is open) -->
    <rect x="60" y="130" width="21" height="12" rx="2" fill="#d4b060"/>
    <rect x="64" y="133" width="13" height="7" rx="1" fill="#a08028"/>

    <!-- Chest open lid -->
    <path d="M5,55 Q70,-20 135,55 Q100,30 70,25 Q40,30 5,55 Z" fill="#8b5e3c"/>
    <!-- Lid top surface -->
    <path d="M8,52 Q70,-15 132,52 Q100,28 70,23 Q40,28 8,52 Z" fill="#9a6a40"/>
    <!-- Lid planks -->
    <path d="M25,40 Q70,10 115,40 Q100,25 70,22 Q40,25 25,40 Z" fill="#a07848" opacity="0.5"/>
    <!-- Lid hinge at back -->
    <rect x="50" y="50" width="40" height="8" rx="4" fill="#c8a050"/>
    <!-- Lid metal bands -->
    <path d="M8,52 Q70,-15 132,52" stroke="#c8a050" stroke-width="3" fill="none" opacity="0.7"/>
    <!-- Corner pieces on lid -->
    <circle cx="20" cy="46" r="6" fill="#c8a050"/>
    <circle cx="120" cy="46" r="6" fill="#c8a050"/>

    <!-- Chest glow interior -->
    <ellipse cx="70" cy="52" rx="55" ry="22" fill="url(#chestGlow)" filter="url(#chestGlowFilter)"/>
    <!-- Bright glow emanating -->
    <ellipse cx="70" cy="50" rx="40" ry="16" fill="#fff8b0" opacity="0.7"/>
    <ellipse cx="70" cy="48" rx="25" ry="10" fill="#ffffff" opacity="0.55"/>

    <!-- Glowing light rays from chest -->
    <line x1="70" y1="45" x2="55" y2="10" stroke="#f59e0b" stroke-width="1.5" opacity="0.4"/>
    <line x1="70" y1="45" x2="70" y2="5" stroke="#f5d060" stroke-width="2" opacity="0.45"/>
    <line x1="70" y1="45" x2="85" y2="10" stroke="#f59e0b" stroke-width="1.5" opacity="0.4"/>
    <line x1="70" y1="45" x2="40" y2="15" stroke="#e8c040" stroke-width="1" opacity="0.3"/>
    <line x1="70" y1="45" x2="100" y2="15" stroke="#e8c040" stroke-width="1" opacity="0.3"/>

    <!-- Chest side visible -->
    <path d="M133,55 Q135,70 134,145 L141,142 L140,58 Z" fill="#5a3018" opacity="0.8"/>
  </g>

  <!-- ============ 5. BRASS COMPASS (bottom-center) ============ -->
  <g filter="url(#compassGlowFilter)" transform="translate(240, 315)">
    <!-- Compass outer ring -->
    <circle cx="60" cy="60" r="58" fill="#c8a030"/>
    <circle cx="60" cy="60" r="55" fill="url(#compassGrad)"/>
    <!-- Compass bezel markings ring -->
    <circle cx="60" cy="60" r="52" fill="none" stroke="#a07820" stroke-width="2.5"/>
    <!-- Compass face -->
    <circle cx="60" cy="60" r="48" fill="#fdf8e8"/>
    <circle cx="60" cy="60" r="48" fill="#f5e8c0" opacity="0.5"/>

    <!-- Cardinal tick marks - N/S/E/W -->
    <line x1="60" y1="13" x2="60" y2="22" stroke="#2a1808" stroke-width="3" stroke-linecap="round"/>
    <line x1="60" y1="99" x2="60" y2="108" stroke="#2a1808" stroke-width="3" stroke-linecap="round"/>
    <line x1="13" y1="60" x2="22" y2="60" stroke="#2a1808" stroke-width="3" stroke-linecap="round"/>
    <line x1="99" y1="60" x2="108" y2="60" stroke="#2a1808" stroke-width="3" stroke-linecap="round"/>
    <!-- Intermediate tick marks -->
    <line x1="97" y1="23" x2="91" y2="29" stroke="#6b4226" stroke-width="1.5" stroke-linecap="round"/>
    <line x1="23" y1="23" x2="29" y2="29" stroke="#6b4226" stroke-width="1.5" stroke-linecap="round"/>
    <line x1="23" y1="97" x2="29" y2="91" stroke="#6b4226" stroke-width="1.5" stroke-linecap="round"/>
    <line x1="97" y1="97" x2="91" y2="91" stroke="#6b4226" stroke-width="1.5" stroke-linecap="round"/>

    <!-- Cardinal direction letters -->
    <text x="60" y="36" text-anchor="middle" font-family="serif" font-size="14" font-weight="bold" fill="#1a0f05">N</text>
    <text x="60" y="95" text-anchor="middle" font-family="serif" font-size="12" fill="#4a3020">S</text>
    <text x="24" y="65" text-anchor="middle" font-family="serif" font-size="12" fill="#4a3020">W</text>
    <text x="96" y="65" text-anchor="middle" font-family="serif" font-size="12" fill="#4a3020">E</text>

    <!-- Compass rose background star -->
    <path d="M60,20 L63,55 L90,42 L67,60 L90,78 L63,65 L60,100 L57,65 L30,78 L53,60 L30,42 L57,55 Z" fill="#d4b060" opacity="0.25"/>

    <!-- Compass needle - North (red) pointing slightly left of true north -->
    <path d="M60,60 L57,25 L60,33 L63,25 Z" fill="url(#needleNorth)"/>
    <!-- Compass needle - South (silver) -->
    <path d="M60,60 L57,95 L60,87 L63,95 Z" fill="url(#needleSouth)"/>

    <!-- Needle pivot center -->
    <circle cx="60" cy="60" r="6" fill="#c8a030"/>
    <circle cx="60" cy="60" r="4" fill="#e8c050"/>
    <circle cx="60" cy="60" r="2" fill="#1a1408"/>

    <!-- Compass outer bezel tick marks (every 10 degrees) -->
    <g stroke="#9a7820" stroke-width="1.2" opacity="0.6">
      <line x1="60" y1="8" x2="60" y2="12"/>
      <line x1="109" y1="24" x2="106" y2="27"/>
      <line x1="112" y1="60" x2="108" y2="60"/>
      <line x1="109" y1="96" x2="106" y2="93"/>
      <line x1="60" y1="112" x2="60" y2="108"/>
      <line x1="11" y1="96" x2="14" y2="93"/>
      <line x1="8" y1="60" x2="12" y2="60"/>
      <line x1="11" y1="24" x2="14" y2="27"/>
    </g>

    <!-- Compass ring highlight -->
    <path d="M22,28 Q60,8 98,28" stroke="#e8d070" stroke-width="3" fill="none" opacity="0.45" stroke-linecap="round"/>
  </g>

  <!-- ============ FINAL WARM LIGHT OVERLAY ============ -->
  <!-- Re-apply warm light on top for cohesion -->
  <ellipse cx="300" cy="220" rx="250" ry="200" fill="#fff8e0" opacity="0.12"/>
</svg>
